<?xml version="1.0" standalone="no"?>
<!DOCTYPE svg PUBLIC "-//W3C//DTD SVG 20010904//EN"
 "http://www.w3.org/TR/2001/REC-SVG-20010904/DTD/svg10.dtd">
<svg version="1.0" xmlns="http://www.w3.org/2000/svg"
 width="149.000000pt" height="149.000000pt" viewBox="0 0 149.000000 149.000000"
 preserveAspectRatio="xMidYMid meet">

<g transform="translate(0.000000,149.000000) scale(0.100000,-0.100000)"
fill="#000000" stroke="none">
<path d="M486 1453 c-32 -13 -39 -14 -46 -2 -7 11 -17 10 -55 -9 -25 -12 -56
-22 -69 -22 -27 0 -89 -43 -132 -92 -59 -68 -83 -132 -94 -258 -8 -81 -20
-141 -41 -202 -46 -133 -41 -175 27 -244 l27 -26 -12 -77 c-31 -191 -23 -426
16 -493 l17 -28 641 0 640 0 32 68 c58 125 64 250 15 322 -12 18 -17 47 -17
105 -1 125 -50 223 -147 292 l-50 36 25 15 c14 9 35 33 47 53 20 37 20 39 4
91 -22 69 -27 74 -72 82 -21 3 -45 11 -55 18 -16 12 -16 15 0 56 16 41 16 45
-1 77 -20 36 -59 57 -146 76 -70 15 -84 22 -143 77 -45 42 -54 47 -115 53 -52
5 -70 12 -80 28 -16 24 -62 28 -109 10 -19 -7 -29 -7 -31 0 -5 15 -30 13 -76
-6z m374 -98 c0 -3 -20 -10 -45 -16 -51 -13 -95 -49 -95 -79 0 -26 -26 -26
-40 1 -13 23 -6 69 10 69 6 0 10 -5 10 -11 0 -6 12 -2 28 9 15 10 34 22 42 25
19 7 90 9 90 2z m-416 -104 c-82 -41 -106 -58 -138 -100 -67 -90 -79 -78 -16
16 40 59 61 76 110 87 14 3 32 10 40 16 13 9 13 11 0 20 -11 7 2 10 44 10 l59
0 -99 -49z m426 10 c0 -3 -16 -28 -35 -55 -38 -54 -43 -68 -20 -60 13 5 13 2
1 -27 -17 -43 -11 -58 44 -104 40 -34 49 -37 90 -32 25 2 54 8 64 12 14 6 17
5 12 -3 -19 -31 -242 -73 -381 -71 l-60 0 50 16 c89 27 145 85 145 152 0 32
-38 121 -52 121 -17 0 -6 26 18 43 16 12 34 17 50 13 17 -5 24 -2 24 9 0 12 4
13 25 3 14 -6 25 -14 25 -17z m247 -22 c41 -20 48 -31 43 -74 -3 -30 -28 -65
-48 -65 -10 1 -25 18 -37 42 -14 29 -28 44 -47 49 -31 8 -42 1 -27 -17 16 -19
2 -64 -19 -64 -10 0 -28 7 -41 17 l-24 16 6 -34 c9 -47 -3 -63 -42 -54 -36 8
-39 23 -12 80 24 53 55 83 105 106 53 24 90 24 143 -2z m-554 -8 c-65 -22
-108 -54 -203 -149 l-75 -76 50 -23 c46 -22 47 -23 15 -18 -19 3 -50 13 -70
23 -30 15 -35 22 -36 55 -1 27 3 37 14 37 9 0 36 17 61 38 101 84 196 132 261
131 34 0 33 0 -17 -18z m127 -49 c14 -10 33 -34 43 -54 22 -45 10 -78 -39
-101 l-34 -17 0 56 c0 68 -11 90 -49 99 -64 14 -127 -46 -146 -137 -4 -22 -11
-28 -33 -28 -38 0 -72 11 -72 22 0 12 94 102 145 137 76 54 133 60 185 23z
m-110 -59 c0 -44 -12 -64 -34 -57 -29 9 -29 9 -21 43 5 24 12 31 31 31 16 0
24 -6 24 -17z m323 -240 c-7 -2 -19 -2 -25 0 -7 3 -2 5 12 5 14 0 19 -2 13 -5z
m292 -206 c21 -29 19 -60 -5 -90 -46 -58 -140 -40 -140 27 0 77 104 122 145
63z m-585 -37 c27 -27 30 -34 24 -68 -8 -42 -8 -48 2 -80 6 -22 5 -22 -20 -11
-21 10 -34 10 -60 1 -69 -25 -125 -12 -150 36 -12 23 -12 33 -1 65 23 68 49
85 127 86 40 1 52 -4 78 -29z m-350 -339 l0 -44 41 7 c23 4 54 13 70 21 35 18
59 19 59 2 0 -17 -29 -57 -42 -57 -5 0 -23 -9 -39 -21 -29 -20 -30 -21 -74 -2
-48 19 -50 25 -45 113 4 72 30 56 30 -19z m1161 43 c15 -13 16 -20 6 -42 -15
-37 -17 -38 -27 -22 -11 17 -13 80 -3 80 3 0 14 -7 24 -16z m-75 -16 c3 -12
13 -28 20 -36 20 -19 17 -32 -6 -32 -23 0 -40 28 -40 64 0 32 16 34 26 4z
m-86 -88 c-29 -8 -51 5 -43 25 4 12 10 12 36 -2 l32 -17 -25 -6z"/>
</g>
</svg>
