<?xml version="1.0" standalone="no"?>
<!DOCTYPE svg PUBLIC "-//W3C//DTD SVG 20010904//EN"
 "http://www.w3.org/TR/2001/REC-SVG-20010904/DTD/svg10.dtd">
<svg version="1.0" xmlns="http://www.w3.org/2000/svg"
 width="820.000000pt" height="820.000000pt" viewBox="0 0 820.000000 820.000000"
 preserveAspectRatio="xMidYMid meet">

<g transform="translate(0.000000,820.000000) scale(0.100000,-0.100000)"
fill="#000000" stroke="none">
<path d="M3920 6594 c-19 -2 -80 -9 -135 -15 -188 -20 -414 -77 -612 -154
-776 -304 -1356 -961 -1558 -1765 -57 -228 -69 -337 -69 -615 -1 -277 10 -380
59 -590 196 -835 799 -1520 1601 -1820 110 -41 165 -43 213 -8 48 36 53 74 45
337 l-7 238 -36 -6 c-254 -40 -435 -23 -584 56 -85 45 -186 147 -221 223 -98
212 -164 308 -258 377 -112 81 -139 109 -136 137 7 62 148 63 272 2 85 -42
164 -116 230 -216 71 -108 114 -155 179 -198 142 -93 305 -107 495 -43 l67 23
18 69 c23 87 57 163 102 225 19 27 35 51 35 53 0 2 -28 6 -62 10 -102 11 -286
55 -388 93 -374 138 -583 387 -672 799 -20 95 -23 136 -23 329 0 199 2 227 23
298 43 150 103 268 188 373 l42 51 -20 69 c-43 152 -32 390 26 549 l21 60 85
-1 c138 -2 319 -72 531 -204 l84 -53 109 23 c185 37 285 50 456 56 216 9 422
-12 670 -67 l55 -12 90 55 c209 128 384 197 522 206 l81 5 15 -30 c58 -110 84
-379 53 -533 -10 -46 -22 -92 -27 -102 -7 -13 -2 -25 19 -50 87 -101 165 -248
203 -383 18 -65 23 -114 27 -262 4 -199 -5 -300 -42 -447 -54 -209 -129 -349
-261 -482 -172 -173 -387 -271 -719 -329 -49 -8 -100 -15 -113 -15 -24 0 -24
0 10 -42 43 -54 90 -146 113 -224 15 -51 18 -119 21 -508 5 -491 5 -491 63
-521 45 -23 92 -18 198 21 479 176 930 531 1221 959 163 240 290 522 361 799
64 252 75 345 75 646 0 290 -9 373 -66 608 -247 1015 -1100 1784 -2139 1928
-102 14 -460 26 -530 18z"/>
<path d="M2440 2947 c0 -20 22 -37 47 -37 25 0 30 19 11 38 -16 16 -58 15 -58
-1z"/>
<path d="M2563 2873 c-16 -6 -17 -45 -1 -61 15 -15 45 -16 53 -2 16 26 -23 73
-52 63z"/>
<path d="M2646 2724 c-7 -19 17 -62 40 -71 9 -3 22 1 31 10 13 13 13 19 1 43
-16 34 -61 45 -72 18z"/>
<path d="M2771 2582 c-19 -35 45 -96 75 -71 22 18 17 45 -12 68 -33 26 -50 27
-63 3z"/>
<path d="M2953 2483 c-21 -8 -15 -51 7 -63 33 -18 74 -9 78 17 5 34 -46 62
-85 46z"/>
<path d="M3359 2461 c-20 -16 -22 -23 -13 -38 15 -24 50 -28 80 -9 29 20 31
42 5 56 -28 15 -46 12 -72 -9z"/>
<path d="M3150 2429 c-15 -27 3 -49 40 -49 43 0 60 10 60 35 0 40 -81 51 -100
14z"/>
</g>
</svg>
