<?xml version="1.0" standalone="no"?>
<!DOCTYPE svg PUBLIC "-//W3C//DTD SVG 20010904//EN"
 "http://www.w3.org/TR/2001/REC-SVG-20010904/DTD/svg10.dtd">
<svg version="1.0" xmlns="http://www.w3.org/2000/svg"
 width="348.000000pt" height="200.000000pt" viewBox="0 0 348.000000 200.000000"
 preserveAspectRatio="xMidYMid meet">

<g transform="translate(0.000000,200.000000) scale(0.100000,-0.100000)"
fill="#000000" stroke="none">
<path d="M810 1862 c-73 -36 -70 5 -70 -862 0 -867 -3 -826 70 -862 32 -17 92
-18 813 -18 857 0 828 -2 867 62 20 32 20 48 20 818 0 770 0 786 -20 818 -39
64 -10 62 -867 62 -721 0 -781 -1 -813 -18z m408 -249 c69 -52 87 -121 50
-193 -45 -88 -157 -114 -230 -52 -91 77 -69 215 42 261 35 15 108 7 138 -16z
m843 -389 c70 -21 128 -78 160 -159 22 -58 23 -72 27 -372 l4 -313 -136 0
-136 0 0 260 c0 277 -4 304 -50 345 -17 16 -36 20 -85 20 -54 0 -68 -4 -90
-25 -55 -50 -59 -73 -63 -347 l-4 -253 -129 0 -129 0 0 420 0 420 125 0 125 0
0 -55 0 -54 48 48 c28 28 67 55 93 64 58 20 172 21 240 1z m-791 -424 l0 -420
-135 0 -135 0 0 420 0 420 135 0 135 0 0 -420z"/>
</g>
</svg>
